<svg id="Capa_1" enable-background="new 0 0 512 512" height="512" viewBox="0 0 512 512" width="512" xmlns="http://www.w3.org/2000/svg"><g><g><path clip-rule="evenodd" d="m71.675 104.87h67.463v109.474h-67.463z" fill="#ffc243" fill-rule="evenodd"/></g><g><path clip-rule="evenodd" d="m252.266 104.87h67.463v109.474h-67.463z" fill="#ffc243" fill-rule="evenodd"/></g><g><path clip-rule="evenodd" d="m343.227 280.874h-295.051v214.243c0 5.159 4.224 9.383 9.382 9.383h74.748c5.471 0 9.921-4.479 9.921-9.921v-87.279c0-29.395 24.066-53.462 53.46-53.462 29.423 0 53.488 24.066 53.488 53.462v87.279c0 5.443 4.45 9.921 9.893 9.921h74.776c5.159 0 9.382-4.224 9.382-9.383v-214.243z" fill="#ffc243" fill-rule="evenodd"/></g><g><path clip-rule="evenodd" d="m368.257 280.505 28.856 209.566c1.247 9.099 9.723 15.506 18.822 14.258l63.466-8.731c9.099-1.247 15.533-9.723 14.286-18.85l-28.856-209.538c-1.276-9.099-9.751-15.534-18.85-14.287l-63.466 8.759c-7.568 1.049-13.323 7.115-14.286 14.372-.057.595-.113 1.219-.142 1.814 0 .88.028 1.759.17 2.637z" fill="#6fd7a3" fill-rule="evenodd"/></g><g><path clip-rule="evenodd" d="m48.176 290.88v29.509h247.43c21.77 0 18.113 11.594 18.113 33.506v150.605h20.126c5.159 0 9.382-4.224 9.382-9.383v-204.237z" fill="#fea610" fill-rule="evenodd"/></g><g><path clip-rule="evenodd" d="m139.138 203.006v-59.103-27.695h-28.629-38.834v27.695h24.803c15.108 0 14.031 8.135 14.031 22.195v36.907h28.629z" fill="#fea610" fill-rule="evenodd"/></g><g><path clip-rule="evenodd" d="m319.729 203.006v-59.103-27.695h-28.629-38.834v27.695h24.831c15.108 0 14.003 8.135 14.003 22.195v36.907h28.629z" fill="#fea610" fill-rule="evenodd"/></g><g><path clip-rule="evenodd" d="m433.084 271.576 28.856 209.566c1.247 9.071-5.131 17.518-14.173 18.822l31.634-4.365c9.099-1.247 15.533-9.723 14.286-18.85l-28.856-209.538c-1.276-9.099-9.751-15.534-18.85-14.287l-31.719 4.394c9.099-1.276 17.574 5.159 18.822 14.258z" fill="#3ec3a4" fill-rule="evenodd"/></g><g><path clip-rule="evenodd" d="m251.897 203.006h-113.156-67.463-33.051c-8.277 0-15.08 6.775-15.08 15.052v57.742c0 8.277 6.803 15.08 15.08 15.08h9.949 295.051 9.949c7.597 0 13.918-5.698 14.91-13.011.028-.595.085-1.219.142-1.814 0-.085 0-.17 0-.255v-57.742c0-8.277-6.775-15.052-15.052-15.052h-33.816z" fill="#ec5469" fill-rule="evenodd"/></g><g><path clip-rule="evenodd" d="m314.201 218.058v57.997c-.057.595-.113 1.219-.142 1.814-.992 7.313-7.313 13.011-14.91 13.011h44.078 9.949c7.597 0 13.918-5.698 14.91-13.011.028-.595.085-1.219.142-1.814v-.255-57.742c0-8.277-6.775-15.052-15.052-15.052h-33.816-20.21c8.277 0 15.051 6.775 15.051 15.052z" fill="#e5374e" fill-rule="evenodd"/></g><g><path clip-rule="evenodd" d="m195.688 7.5 88.779 54.34 88.779 54.369h-177.558-177.53l88.779-54.369z" fill="#6fd7a3" fill-rule="evenodd"/></g><g><path clip-rule="evenodd" d="m195.688 7.5-12.075 7.398c17.688 20.891 28.544 49.266 28.544 80.533 0 7.087-.567 14.032-1.616 20.778h41.725 38.834 28.629 53.517l-88.779-54.369z" fill="#3ec3a4" fill-rule="evenodd"/></g><path d="m501.117 475.724-13.465-97.71c-.565-4.104-4.355-6.969-8.453-6.406-4.104.565-6.972 4.35-6.406 8.454l13.464 97.702c.689 5.048-2.843 9.715-7.879 10.405l-63.462 8.73c-2.42.332-4.839-.307-6.81-1.798-1.967-1.489-3.232-3.637-3.563-6.052l-28.855-209.562c-.065-.475-.081-.945-.073-1.41.038-.374.066-.75.085-1.13.561-3.972 3.681-7.264 7.841-7.834l63.46-8.758c5.029-.689 9.696 2.853 10.401 7.878l10.573 76.819c.563 4.104 4.356 6.97 8.452 6.407 4.104-.564 6.973-4.349 6.407-8.452l-10.575-76.838c-1.852-13.211-14.1-22.486-27.303-20.675l-63.46 8.758c-2.024.277-3.954.802-5.768 1.535v-37.729c0-12.435-10.117-22.552-22.552-22.552h-25.947v-71.797h46.017c3.358 0 6.308-2.233 7.219-5.465s-.438-6.677-3.302-8.431l-177.561-108.71c-2.402-1.471-5.429-1.47-7.831 0l-177.53 108.71c-2.864 1.754-4.213 5.198-3.302 8.431s3.86 5.465 7.219 5.465h46.017v71.797h-25.948c-12.451 0-22.58 10.117-22.58 22.552v57.742c0 12.451 10.129 22.58 22.58 22.58h2.449v196.737c0 9.309 7.573 16.883 16.882 16.883h74.748c9.605 0 17.421-7.815 17.421-17.421v-87.279c0-25.343 20.617-45.962 45.96-45.962 25.358 0 45.989 20.619 45.989 45.962v87.279c0 9.606 7.803 17.421 17.393 17.421h74.776c9.309 0 16.882-7.574 16.882-16.883v-196.737h2.449c3.459 0 6.738-.786 9.67-2.185l26.836 194.895c.876 6.387 4.203 12.059 9.37 15.97 4.263 3.227 9.343 4.927 14.582 4.927 1.102 0 2.212-.076 3.322-.228l63.462-8.73c13.223-1.811 22.509-14.057 20.699-27.305zm-188.888-280.218h-52.464v-71.797h52.464zm-165.591 0v-71.797h98.128v71.797zm49.05-179.212 150.95 92.415h-301.873zm-116.513 107.415h52.463v71.797h-52.463zm274.002 159.671h-137.165c-4.143 0-7.5 3.358-7.5 7.5s3.357 7.5 7.5 7.5h119.716v196.737c0 1.021-.861 1.883-1.882 1.883h-74.776c-1.297 0-2.393-1.109-2.393-2.421v-87.279c0-33.614-27.359-60.962-60.989-60.962-33.613 0-60.96 27.348-60.96 60.962v87.279c0 1.312-1.108 2.421-2.421 2.421h-74.749c-1.021 0-1.882-.862-1.882-1.883v-196.737h125.102c4.143 0 7.5-3.358 7.5-7.5s-3.357-7.5-7.5-7.5h-142.551c-4.108 0-7.58-3.471-7.58-7.58v-57.742c0-4.093 3.472-7.552 7.58-7.552h314.949c4.164 0 7.552 3.388 7.552 7.552v57.742c-.035.347-.064.696-.084 1.046-.527 3.634-3.727 6.534-7.467 6.534z"/></g></svg>