<svg id="Capa_1" enable-background="new 0 0 512 512" height="512" viewBox="0 0 512 512" width="512" xmlns="http://www.w3.org/2000/svg"><g><g clip-rule="evenodd" fill-rule="evenodd"><path d="m168.681 397.577h39.712v75.855h-39.712z" fill="#f9f7f8"/><path d="m208.393 463.426h-39.712-6.066c-11.282 0-20.522 9.241-20.522 20.523v20.551h92.889v-20.551c0-11.282-9.241-20.523-20.522-20.523z" fill="#547884"/><path d="m303.607 397.577h39.712v75.855h-39.712z" fill="#f9f7f8"/><path d="m303.607 407.583h39.712 3.543c6.179 0 11.282-5.074 11.282-11.282v-31.38h-69.362v31.38c0 6.208 5.074 11.282 11.282 11.282z" fill="#547884"/><path d="m204 131.289h108.479v55.162h-108.479z" fill="#f9f7f8"/><path d="m361.092 32.473v82.744h27.836c9.808 0 17.858-8.022 17.858-17.858v-47.056c0-9.808-8.05-17.83-17.858-17.83z" fill="#547884"/><path d="m150.88 115.217v-82.744h-27.836c-9.808 0-17.829 8.022-17.829 17.83v47.055c0 9.808 8.022 17.858 17.829 17.858h27.836z" fill="#547884"/><path d="m289.434 169.642v7.937h23.045v-37.389h-29.338-79.141v17.688h69.702c11.282 0 15.448 0 15.732 11.764z" fill="#e5e1e5"/><path d="m331.612 374.928v21.373c0 6.208-5.074 11.282-11.282 11.282h22.988 3.543c6.179 0 11.282-5.074 11.282-11.282v-21.373h-21.343z" fill="#3d595a"/><path d="m234.982 483.949c0-11.282-9.241-20.523-20.522-20.523h-6.066-10.119c11.282 0 20.522 9.241 20.522 20.523v20.551h16.185z" fill="#3d595a"/><path d="m168.681 421.076h14.711c10.034 0 9.099 4.847 9.099 10.913v31.436h15.902v-55.843h-39.712z" fill="#e5e1e5"/><path d="m303.607 421.076h14.74c10.006 0 9.071 4.847 9.071 10.913v31.436h15.902v-55.843h-39.712v13.494z" fill="#e5e1e5"/><path d="m223.19 364.922h-69.334v31.38c0 6.208 5.074 11.282 11.282 11.282h3.543 39.712 3.515c6.208 0 11.282-5.074 11.282-11.282z" fill="#547884"/><path d="m223.19 396.301v-21.373h-26.532v21.373c0 6.208-5.074 11.282-11.253 11.282h22.988 3.515c6.208 0 11.282-5.074 11.282-11.282z" fill="#3d595a"/><path d="m142.716 250.033v113.726c0 6.123 5.017 11.169 11.14 11.169h69.334 65.592 69.362c6.123 0 11.14-5.046 11.14-11.169v-113.726-61.314c0-6.123-5.017-11.14-11.14-11.14h-45.665-108.479-50.144c-6.123 0-11.14 5.017-11.14 11.14z" fill="#ffc243"/><path d="m182.202 258.424h146.179c1.899 0 3.43-1.531 3.43-3.43v-41.783c0-1.899-1.531-3.43-3.43-3.43h-146.179c-1.899 0-3.43 1.531-3.43 3.43v41.783c0 1.899 1.531 3.43 3.43 3.43z" fill="#60b6ff"/><path d="m347.968 188.719v61.314 113.726c0 6.123-5.017 11.169-11.168 11.169h21.344c6.123 0 11.14-5.046 11.14-11.169v-113.726-61.314c0-6.123-5.017-11.14-11.14-11.14h-21.344c6.151 0 11.168 5.018 11.168 11.14z" fill="#fea610"/><path d="m305.336 213.211v41.783c0 1.899-1.559 3.43-3.43 3.43h26.475c1.899 0 3.43-1.531 3.43-3.43v-41.783c0-1.899-1.531-3.43-3.43-3.43h-26.475c1.871 0 3.43 1.531 3.43 3.43z" fill="#23a6fe"/><path d="m204 140.19h116.926 25.199c13.748 0 24.973-11.254 24.973-24.973v-82.744c0-13.748-11.225-24.973-24.973-24.973h-180.25c-13.748 0-24.973 11.225-24.973 24.973v82.744c0 13.72 11.225 24.973 24.973 24.973z" fill="#ffc243"/><path d="m178.885 108.357h154.201c2.693 0 4.875-2.183 4.875-4.876v-59.301c0-2.665-2.183-4.847-4.875-4.847h-154.201c-2.664 0-4.847 2.183-4.847 4.847v59.301c0 2.693 2.183 4.876 4.847 4.876z" fill="#f9f7f8"/><path d="m320.331 75.815v27.666c0 2.693-2.183 4.876-4.875 4.876h17.631c2.693 0 4.875-2.183 4.875-4.876v-59.301c0-2.665-2.183-4.847-4.875-4.847h-21.827-132.375c-2.664 0-4.847 2.183-4.847 4.847v16.328c0 2.665 2.183-4.876 4.847-4.876h125.657c16.044 0 15.789 5.585 15.789 20.183z" fill="#e5e1e5"/><path d="m297.541 463.426c-11.282 0-20.522 9.241-20.522 20.523v20.551h92.889v-20.551c0-11.282-9.241-20.523-20.522-20.523h-6.066-39.712z" fill="#547884"/><path d="m333.2 463.426c11.282 0 20.522 9.241 20.522 20.523v20.551h16.185v-20.551c0-11.282-9.241-20.523-20.522-20.523h-6.066z" fill="#3d595a"/><path d="m337.962 44.18v59.301c0 2.693-2.183 4.876-4.875 4.876h-12.33v6.86c0 7.313-3.203 13.947-8.277 18.51-4.422 3.997-10.29 6.463-16.696 6.463h16.696 8.447 25.199c13.748 0 24.973-11.254 24.973-24.973v-82.744c0-13.748-11.225-24.973-24.973-24.973h-50.342c13.719 0 24.973 11.225 24.973 24.973v6.86h12.33c2.692 0 4.875 2.183 4.875 4.847z" fill="#fea610"/><path d="m140.902 95.119h-17.858c-9.808 0-17.829-8.05-17.829-17.858v20.098c0 9.808 8.022 17.858 17.829 17.858h17.858z" fill="#3d595a"/><path d="m371.098 95.119v20.098h17.829c9.808 0 17.858-8.022 17.858-17.858v-20.098c0 9.808-8.05 17.858-17.858 17.858z" fill="#3d595a"/><path d="m34.945 243.173v55.474h31.917v-49.805c-7.709-15.392-21.542-13.974-31.917-5.669z" fill="#f9f7f8"/><path d="m54.419 200.2c-5.169 9.581-6.293 28.8 24.236 35.121h33.08l7.965-19.928-7.965-15.194h-57.316z" fill="#f9f7f8"/><path d="m111.734 238.553c0 6.321 5.159 11.48 11.48 11.48h19.502v-61.314h-19.502c-6.321 0-11.48 5.159-11.48 11.48v1.616 35.121z" fill="#547884"/><path d="m142.716 250.033v-16.413h-19.502c-6.321 0-11.48-5.159-11.48-11.48v.709 14.088 1.616c0 6.321 5.159 11.48 11.48 11.48z" fill="#3d595a"/><path d="m111.734 219.39h-32.286c.567 2.126.879 4.394.879 6.718 0 3.26-.595 6.35-1.672 9.213h33.08v-12.472-.709-2.75z" fill="#e5e1e5"/><path d="m50.904 251.791v46.857h15.959v-49.805c-3.685 2.013-7.937 3.175-12.444 3.175-1.191-.001-2.353-.086-3.515-.227z" fill="#e5e1e5"/><path d="m81.914 226.109c0-15.165-12.302-27.468-27.495-27.468-6.321 0-12.132 2.126-16.781 5.698-6.491 5.046-10.686 12.926-10.686 21.77 0 6.945 2.551 13.266 6.803 18.113 5.046 5.754 12.444 9.383 20.664 9.383 4.79 0 9.297-1.219 13.209-3.373 5.697-3.146 10.148-8.22 12.5-14.343 1.134-3.034 1.786-6.322 1.786-9.78z" fill="#547884"/><path d="m48.041 199.378c9.921 4.139 16.894 13.947 16.894 25.37 0 3.43-.624 6.746-1.786 9.78-2.353 6.123-6.803 11.197-12.5 14.343-2.126 1.162-4.394 2.041-6.803 2.608 3.26 1.361 6.831 2.126 10.573 2.126 4.79 0 9.297-1.219 13.209-3.373 5.697-3.146 10.148-8.22 12.5-14.343 1.134-3.033 1.786-6.321 1.786-9.78 0-15.165-12.302-27.468-27.495-27.468-2.551 0-4.79.198-6.775.567.114.056.255.113.397.17z" fill="#3d595a"/><path d="m477.055 243.173v55.474h-31.946v-49.805c7.71-15.392 21.571-13.974 31.946-5.669z" fill="#f9f7f8"/><path d="m457.553 200.2c2.585 5.629 6.321 28.8-24.207 35.121h-33.08l-7.993-19.928 7.993-15.194h57.287z" fill="#f9f7f8"/><path d="m400.266 238.553c0 6.321-5.159 11.48-11.48 11.48h-19.502v-61.314h19.502c6.321 0 11.48 5.159 11.48 11.48v1.616 35.121z" fill="#547884"/><path d="m369.284 250.033v-16.413h19.502c6.321 0 11.48-5.159 11.48-11.48v.709 14.088 1.616c0 6.321-5.159 11.48-11.48 11.48z" fill="#3d595a"/><path d="m400.266 219.39h32.286c-.595 2.126-.879 4.394-.879 6.718 0 3.26.595 6.35 1.672 9.213h-33.08v-12.472-.709-2.75z" fill="#e5e1e5"/><path d="m430.086 226.109c0-15.165 12.302-27.468 27.467-27.468 6.321 0 12.16 2.126 16.809 5.698 6.491 5.046 10.686 12.926 10.686 21.77 0 6.945-2.579 13.266-6.803 18.113-5.046 5.754-12.444 9.383-20.692 9.383-4.762 0-9.269-1.219-13.181-3.373-5.698-3.146-10.176-8.22-12.5-14.343-1.163-3.034-1.786-6.322-1.786-9.78z" fill="#547884"/><path d="m477.055 245.498c-4.195 4.224-9.751 7.087-15.959 7.88v45.269h15.959z" fill="#e5e1e5"/><path d="m461.096 253.378c6.208-.794 11.763-3.657 15.959-7.88.397-.425.794-.85 1.191-1.276 4.224-4.847 6.803-11.169 6.803-18.113 0-8.844-4.195-16.724-10.686-21.77-4.649-3.572-10.488-5.698-16.809-5.698-2.75 0-5.442.397-7.965 1.162.397.113.822.255 1.219.397 1.587.567 3.118 1.276 4.535 2.098 8.22 4.762 13.748 13.635 13.748 23.811 0 4.139-.907 8.079-2.551 11.594-2.891 6.18-7.993 11.112-14.315 13.776-.85.34-1.729.652-2.636.935 2.523.765 5.216 1.191 7.965 1.191 1.218 0 2.38-.085 3.542-.227z" fill="#3d595a"/></g><g><path d="m345.462 103.481v-59.3c0-6.809-5.552-12.348-12.375-12.348h-154.202c-6.808 0-12.347 5.539-12.347 12.348v59.301c0 6.824 5.539 12.375 12.347 12.375h154.201c6.824 0 12.376-5.552 12.376-12.376zm-15-2.624h-148.924v-54.024h148.924z"/><path d="m216.132 81.331h17.943c4.142 0 7.5-3.358 7.5-7.5s-3.358-7.5-7.5-7.5h-17.943c-4.142 0-7.5 3.358-7.5 7.5s3.358 7.5 7.5 7.5z"/><path d="m277.925 81.331h17.943c4.142 0 7.5-3.358 7.5-7.5s-3.358-7.5-7.5-7.5h-17.943c-4.142 0-7.5 3.358-7.5 7.5s3.358 7.5 7.5 7.5z"/><path d="m182.202 265.924h58.364c4.142 0 7.5-3.358 7.5-7.5s-3.358-7.5-7.5-7.5h-54.294v-33.643h138.039v33.643h-49.107c-4.142 0-7.5 3.358-7.5 7.5s3.358 7.5 7.5 7.5h53.177c6.027 0 10.93-4.903 10.93-10.93v-41.783c0-6.027-4.903-10.93-10.93-10.93h-146.179c-6.027 0-10.93 4.903-10.93 10.93v41.783c0 6.027 4.903 10.93 10.93 10.93z"/><path d="m484.555 291.479v-43.132c4.991-6.05 7.993-13.8 7.993-22.238 0-19.281-15.699-34.968-34.995-34.968-3.595 0-7.065.547-10.332 1.559h-41.006c-2.914-6.745-9.626-11.48-17.429-11.48h-13.593c-2.897-6.551-9.456-11.14-17.077-11.14h-38.137v-22.39h26.146c15.324 0 28.194-10.673 31.589-24.974h11.213c13.982 0 25.357-11.375 25.357-25.358v-47.055c0-13.967-11.375-25.33-25.357-25.33h-11.214c-3.394-14.3-16.264-24.973-31.588-24.973h-180.25c-15.324 0-28.193 10.673-31.589 24.973h-11.242c-13.966 0-25.329 11.363-25.329 25.33v47.055c0 13.983 11.363 25.358 25.329 25.358h11.242c3.395 14.301 16.265 24.974 31.589 24.974h30.625v22.389h-42.644c-7.609 0-14.158 4.589-17.051 11.14h-13.59c-7.802 0-14.515 4.735-17.429 11.48h-41.027c-3.27-1.012-6.742-1.559-10.34-1.559-19.281 0-34.967 15.687-34.967 34.968 0 8.441 3.002 16.194 7.993 22.246v43.121c-10.009 1.716-17.659 10.444-17.659 20.949v52.299c0 4.142 3.358 7.5 7.5 7.5s7.5-3.358 7.5-7.5v-52.299c0-3.461 2.803-6.276 6.248-6.276h39.741c3.445 0 6.248 2.815 6.248 6.276v52.299c0 4.142 3.358 7.5 7.5 7.5s7.5-3.358 7.5-7.5v-52.299c0-10.505-7.65-19.233-17.66-20.949v-36.634c4.464-3.108 8.177-7.223 10.796-12.02h19.578c1.944 8.414 9.482 14.712 18.478 14.712h12.002v106.226c0 7.621 4.589 14.18 11.14 17.078v15.464c0 8.998 6.363 16.531 14.825 18.354v41.307c-14.788.749-26.588 13.016-26.588 27.987v20.551c0 4.142 3.358 7.5 7.5 7.5h92.889c4.142 0 7.5-3.358 7.5-7.5v-20.551c0-14.971-11.801-27.238-26.588-27.987v-41.314c8.447-1.834 14.797-9.359 14.797-18.347v-13.874h50.592v13.874c0 8.999 6.364 16.531 14.825 18.354v41.307c-14.788.749-26.588 13.016-26.588 27.987v20.551c0 4.142 3.358 7.5 7.5 7.5h92.889c4.142 0 7.5-3.358 7.5-7.5v-20.551c0-14.971-11.8-27.237-26.588-27.987v-41.307c8.461-1.823 14.825-9.356 14.825-18.354v-15.473c6.552-2.901 11.14-9.455 11.14-17.069v-106.226h12.002c8.996 0 16.534-6.298 18.478-14.712h19.574c2.613 4.792 6.318 8.902 10.771 12.009v36.649c-10.012 1.725-17.66 10.448-17.66 20.945v52.299c0 4.142 3.358 7.5 7.5 7.5s7.5-3.358 7.5-7.5v-52.299c0-3.402 2.874-6.276 6.276-6.276h39.712c3.402 0 6.276 2.874 6.276 6.276v52.299c0 4.142 3.358 7.5 7.5 7.5s7.5-3.358 7.5-7.5v-52.299c-.002-10.497-7.65-19.22-17.661-20.945zm-7.007-65.371c0 11.026-8.97 19.996-19.995 19.996-11.01 0-19.967-8.97-19.967-19.996 0-11.01 8.958-19.968 19.967-19.968 11.025.001 19.995 8.958 19.995 19.968zm-78.263-175.805v47.055c0 5.711-4.646 10.358-10.357 10.358h-10.33v-67.743h10.33c5.711 0 10.357 4.634 10.357 10.33zm-286.57 47.055v-47.055c0-5.696 4.634-10.33 10.329-10.33h10.358v67.744h-10.358c-5.695 0-10.329-4.647-10.329-10.359zm98.785 50.332h26.487c4.142 0 7.5-3.358 7.5-7.5s-3.358-7.5-7.5-7.5h-72.112c-9.634 0-17.473-7.838-17.473-17.474v-82.743c0-9.635 7.838-17.473 17.473-17.473h180.251c9.634 0 17.473 7.838 17.473 17.473v82.744c0 9.635-7.838 17.474-17.473 17.474h-73.5c-4.142 0-7.5 3.358-7.5 7.5s3.358 7.5 7.5 7.5h32.354v22.389h-93.48zm-57.644 37.389h204.26c1.988 0 3.668 1.667 3.668 3.64v61.314 113.726c0 1.988-1.68 3.668-3.668 3.668h-204.26c-1.973 0-3.64-1.68-3.64-3.668v-113.726-61.314c0-1.973 1.667-3.64 3.64-3.64zm-99.437 21.062c11.025 0 19.996 8.958 19.996 19.968 0 11.026-8.97 19.996-19.996 19.996-11.01 0-19.967-8.97-19.967-19.996 0-11.011 8.957-19.968 19.967-19.968zm4.944 85.006h-16.918v-32.157c3.737 1.367 7.77 2.115 11.974 2.115 1.679 0 3.328-.126 4.944-.356zm24.792-83.447h20.08v20.122h-14.864c.028-.568.043-1.138.043-1.713.001-6.752-1.93-13.059-5.259-18.409zm39.059 34.833c-2.194 0-3.98-1.786-3.98-3.98v-38.353c0-2.195 1.786-3.98 3.98-3.98h12.002v46.314h-12.002zm77.679 213.393h-24.712v-40.843h24.712zm26.588 28.023v13.051h-77.889v-13.051c0-7.181 5.842-13.023 13.022-13.023h51.845c7.181 0 13.022 5.842 13.022 13.023zm-11.791-87.648c0 2.05-1.732 3.782-3.782 3.782h-3.515-39.712-3.543c-2.05 0-3.782-1.732-3.782-3.782v-13.874h54.334zm134.954-13.873v13.874c0 2.05-1.732 3.782-3.782 3.782h-3.543-39.712-3.543c-2.05 0-3.782-1.732-3.782-3.782v-13.874zm-14.825 73.498h-24.712v-40.843h24.712zm26.589 28.023v13.051h-77.889v-13.051c0-7.181 5.842-13.023 13.022-13.023h51.845c7.18 0 13.022 5.842 13.022 13.023zm26.378-241.416h-12.002v-46.314h12.002c2.194 0 3.98 1.786 3.98 3.98v38.353c0 2.196-1.786 3.981-3.98 3.981zm18.98-14.712v-20.121h20.076c-3.327 5.351-5.256 11.657-5.256 18.409 0 .574.016 1.145.043 1.713h-14.863zm49.787 33.283c4.214 0 8.257-.749 12.002-2.121v32.164h-16.946v-30.399c1.616.23 3.265.356 4.944.356z"/></g></g></svg>