<svg height="480pt" viewBox="0 0 480 480.24251" width="480pt" xmlns="http://www.w3.org/2000/svg"><path d="m240.121094 88h208v216h-208zm0 0" fill="#dd3e46"/><path d="m8.121094 336h464v48h-464zm0 0" fill="#2d75bb"/><path d="m40.121094 304h432v32h-464c0-17.671875 14.328125-32 32-32zm0 0" fill="#7fcac9"/><path d="m48.121094 176h192v128h-192zm0 0" fill="#f98c96"/><path d="m48.121094 176v128c-17.671875 0-32-14.328125-32-32v-64c0-17.671875 14.328125-32 32-32zm0 0" fill="#2d75bb"/><path d="m216.121094 40h256v48h-256zm0 0" fill="#7fcac9"/><path d="m248.121094 8h192c17.671875 0 32 14.328125 32 32h-256c0-17.671875 14.328125-32 32-32zm0 0" fill="#2d75bb"/><path d="m96.121094 128h32v48h-32zm0 0" fill="#dd3e46"/><path d="m176.121094 144c8.835937 0 16 7.164062 16 16v16h-32v-16c0-8.835938 7.164062-16 16-16zm0 0" fill="#2d75bb"/><path d="m128.121094 128h-32l-8-32h48zm0 0" fill="#5a6470"/><path d="m272.121094 120h144v80h-144zm0 0" fill="#fcf05a"/><path d="m72.121094 176h16v80h-16zm0 0" fill="#dd3e46"/><path d="m80.203125 280c-4.421875.023438-8.019531-3.542969-8.042969-7.960938-.019531-4.417968 3.542969-8.015624 7.960938-8.039062h.082031c4.417969 0 8 3.582031 8 8s-3.582031 8-8 8zm0 0" fill="#dd3e46"/><g fill="#7fcac9"><path d="m272.121094 224h16v16h-16zm0 0"/><path d="m304.121094 224h16v16h-16zm0 0"/><path d="m336.121094 224h16v16h-16zm0 0"/><path d="m368.121094 224h16v16h-16zm0 0"/><path d="m400.121094 224h16v16h-16zm0 0"/></g><path d="m216.121094 280h-32v-16h16v-88h16zm0 0" fill="#dd3e46"/><path d="m152.121094 264h16v16h-16zm0 0" fill="#dd3e46"/><path d="m352.121094 256h16v16h-16zm0 0" fill="#7fcac9"/><path d="m384.121094 256h16v16h-16zm0 0" fill="#7fcac9"/><path d="m288.121094 256h16v16h-16zm0 0" fill="#7fcac9"/><path d="m320.121094 256h16v16h-16zm0 0" fill="#7fcac9"/><path d="m208.121094 408c0 35.347656-28.652344 64-64 64s-64-28.652344-64-64 28.652344-64 64-64 64 28.652344 64 64zm0 0" fill="#5a6470"/><path d="m432.121094 408c0 35.347656-28.652344 64-64 64s-64-28.652344-64-64 28.652344-64 64-64 64 28.652344 64 64zm0 0" fill="#5a6470"/><path d="m176.121094 408c0 17.671875-14.328125 32-32 32s-32-14.328125-32-32 14.328125-32 32-32 32 14.328125 32 32zm0 0" fill="#aabece"/><path d="m400.121094 408c0 17.671875-14.328125 32-32 32s-32-14.328125-32-32 14.328125-32 32-32 32 14.328125 32 32zm0 0" fill="#aabece"/><path d="m144.121094 368c-22.089844 0-40 17.910156-40 40s17.910156 40 40 40 40-17.910156 40-40c-.027344-22.082031-17.917969-39.972656-40-40zm0 64c-13.253906 0-24-10.746094-24-24s10.746094-24 24-24 24 10.746094 24 24-10.746094 24-24 24zm0 0"/><path d="m368.121094 368c-22.089844 0-40 17.910156-40 40s17.910156 40 40 40 40-17.910156 40-40c-.027344-22.082031-17.917969-39.972656-40-40zm0 64c-13.253906 0-24-10.746094-24-24s10.746094-24 24-24 24 10.746094 24 24-10.746094 24-24 24zm0 0"/><path d="m472.121094 96c4.417968 0 8-3.582031 8-8v-48c-.027344-22.082031-17.917969-39.9726562-40-40h-192c-22.082032.0273438-39.972656 17.917969-40 40v48c0 4.417969 3.582031 8 8 8h16v72h-32v-8c0-13.253906-10.746094-24-24-24s-24 10.746094-24 24v8h-16v-39l10.25-41h-68.496094l10.246094 41v39h-40c-22.082032.027344-39.972656 17.917969-40 40v64c.027344 11.070312 4.664062 21.628906 12.800781 29.136719-12.777344 6.957031-20.746094 20.316406-20.800781 34.863281v48c0 4.417969 3.582031 8 8 8h65.855468c-6.691406 28.902344 5.027344 58.953125 29.523438 75.6875 24.496094 16.738281 56.746094 16.738281 81.242188 0 24.496093-16.734375 36.214843-46.785156 29.523437-75.6875h83.710937c-6.691406 28.902344 5.027344 58.953125 29.523438 75.6875 24.496094 16.738281 56.746094 16.738281 81.242188 0 24.496093-16.734375 36.214843-46.785156 29.523437-75.6875h33.855469c4.417968 0 8-3.582031 8-8v-80c0-4.417969-3.582032-8-8-8h-16v-200zm-224-80h192c10.167968.011719 19.230468 6.417969 22.632812 16h-237.265625c3.402344-9.582031 12.464844-15.988281 22.632813-16zm-24 64v-32h240v32zm-56 80c0-4.417969 3.582031-8 8-8 4.417968 0 8 3.582031 8 8v8h-16zm-42.246094-56-4 16h-19.503906l-4-16zm-21.753906 32h16v32h-16zm-48 48h16v72h16v-72h112v80h-16v16h32v-96h16v112h-176zm-32 24c.011718-10.167969 6.417968-19.230469 16-22.632812v109.265624c-9.582032-3.402343-15.988282-12.464843-16-22.632812zm-8 168v-32h95.199218c-13.652343 7.042969-24.710937 18.25-31.566406 32zm128 88c-30.929688 0-56-25.070312-56-56s25.070312-56 56-56c30.929687 0 56 25.070312 56 56-.035156 30.914062-25.085938 55.964844-56 56zm64.398437-88c-6.863281-13.753906-17.933593-24.960938-31.597656-32h158.398437c-13.652343 7.042969-24.710937 18.25-31.566406 32zm159.601563 88c-30.929688 0-56-25.070312-56-56s25.070312-56 56-56c30.929687 0 56 25.070312 56 56-.035156 30.914062-25.085938 55.964844-56 56zm64.398437-88c-6.863281-13.753906-17.933593-24.960938-31.597656-32h63.199219v32zm31.601563-64v16h-446.632813c3.402344-9.582031 12.464844-15.988281 22.632813-16zm-24-16h-192v-200h192zm0 0"/><path d="m424.121094 112h-160v96h160zm-16 80h-128v-64h128zm0 0"/><path d="m80.203125 264h-.082031c-4.433594.023438-8.011719 3.628906-8 8.058594.011718 4.433594 3.609375 8.019531 8.039062 8.019531 4.433594 0 8.03125-3.585937 8.042969-8.019531.007813-4.429688-3.570313-8.035156-8-8.058594zm0 0"/><path d="m272.121094 224h16v16h-16zm0 0"/><path d="m304.121094 224h16v16h-16zm0 0"/><path d="m336.121094 224h16v16h-16zm0 0"/><path d="m368.121094 224h16v16h-16zm0 0"/><path d="m400.121094 224h16v16h-16zm0 0"/><path d="m152.121094 264h16v16h-16zm0 0"/><path d="m352.121094 256h16v16h-16zm0 0"/><path d="m384.121094 256h16v16h-16zm0 0"/><path d="m288.121094 256h16v16h-16zm0 0"/><path d="m320.121094 256h16v16h-16zm0 0"/></svg>