<svg id="Capa_1" enable-background="new 0 0 510 510" height="512" viewBox="0 0 510 510" width="512" xmlns="http://www.w3.org/2000/svg" xmlns:xlink="http://www.w3.org/1999/xlink"><linearGradient id="lg1"><stop offset="0" stop-color="#fff3be"/><stop offset=".5725" stop-color="#ffd15b"/><stop offset="1" stop-color="#eca026"/></linearGradient><linearGradient id="SVGID_1_" gradientTransform="matrix(0 1 1 0 1459.373 -825.725)" gradientUnits="userSpaceOnUse" x1="1012.438" x2="1162.171" xlink:href="#lg1" y1="-974.286" y2="-974.286"/><linearGradient id="SVGID_2_" gradientUnits="userSpaceOnUse" x1="0" x2="179.526" xlink:href="#lg1" y1="129.037" y2="129.037"/><linearGradient id="SVGID_3_" gradientUnits="userSpaceOnUse" x1="-43" x2="156.203" xlink:href="#lg1" y1="176.424" y2="176.424"/><linearGradient id="SVGID_4_" gradientUnits="userSpaceOnUse" x1="-37" x2="86.004" xlink:href="#lg1" y1="88.078" y2="88.078"/><linearGradient id="lg2"><stop offset="0" stop-color="#c2fae3"/><stop offset=".5725" stop-color="#00f2a6"/><stop offset="1" stop-color="#07b27b"/></linearGradient><linearGradient id="SVGID_5_" gradientUnits="userSpaceOnUse" x1="55.992" x2="406.077" xlink:href="#lg2" y1="83.78" y2="83.78"/><linearGradient id="SVGID_6_" gradientUnits="userSpaceOnUse" x1="83" x2="382.202" xlink:href="#lg2" y1="83.78" y2="83.78"/><linearGradient id="lg3"><stop offset="0" stop-color="#99e6fc"/><stop offset=".5042" stop-color="#01d0fb"/><stop offset=".5857" stop-color="#08c7f7"/><stop offset=".7226" stop-color="#1bacec"/><stop offset=".8971" stop-color="#3a82dc"/><stop offset="1" stop-color="#4f66d0"/></linearGradient><linearGradient id="SVGID_7_" gradientUnits="userSpaceOnUse" x1="101" x2="317.592" xlink:href="#lg3" y1="329.116" y2="329.116"/><linearGradient id="SVGID_8_" gradientUnits="userSpaceOnUse" x1="0" x2="460.061" xlink:href="#lg3" y1="347.926" y2="347.926"/><linearGradient id="SVGID_9_" gradientUnits="userSpaceOnUse" x1="-144.667" x2="403.511" xlink:href="#lg3" y1="221.888" y2="221.888"/><linearGradient id="SVGID_10_" gradientUnits="userSpaceOnUse" x1="-39" x2="240.213" xlink:href="#lg3" y1="408.082" y2="408.082"/><linearGradient id="SVGID_11_" gradientUnits="userSpaceOnUse" x1="175" x2="407.003" xlink:href="#lg3" y1="257.114" y2="257.114"/><linearGradient id="SVGID_12_" gradientUnits="userSpaceOnUse" x1="353.386" x2="488.837" xlink:href="#lg3" y1="257.647" y2="257.647"/><linearGradient id="SVGID_13_" gradientTransform="matrix(0 1 -1 0 543.361 -119.241)" gradientUnits="userSpaceOnUse" x1="220.877" x2="356.329" xlink:href="#lg3" y1="272.703" y2="272.703"/><linearGradient id="SVGID_14_" gradientUnits="userSpaceOnUse" x1="-33.351" x2="165.922" xlink:href="#lg3" y1="390.043" y2="390.043"/><linearGradient id="SVGID_15_" gradientUnits="userSpaceOnUse" x1="-5" x2="139.586" xlink:href="#lg3" y1="390.043" y2="390.043"/><linearGradient id="SVGID_16_" gradientUnits="userSpaceOnUse" x1="143.169" x2="220.91" xlink:href="#lg1" y1="273.206" y2="273.206"/><linearGradient id="SVGID_17_" gradientUnits="userSpaceOnUse" x1="110.994" x2="217.896" xlink:href="#lg1" y1="274.915" y2="274.915"/><linearGradient id="SVGID_18_" gradientUnits="userSpaceOnUse" x1="318.384" x2="374.185" xlink:href="#lg2" y1="309.363" y2="309.363"/><linearGradient id="SVGID_19_" gradientUnits="userSpaceOnUse" x1="353.785" x2="409.587" xlink:href="#lg2" y1="309.363" y2="309.363"/><g><path d="m510 265.831v-16.369c0-27.518-22.308-49.826-49.826-49.826v116.021c27.518 0 49.826-22.308 49.826-49.826z" fill="url(#SVGID_1_)"/><path d="m179.526 189.196h-119.367c-33.172 0-60.159-26.987-60.159-60.158s26.987-60.159 60.159-60.159h15.767v25.545h-15.767c-19.086 0-34.614 15.528-34.614 34.614s15.528 34.613 34.614 34.613h119.367z" fill="url(#SVGID_2_)"/><path d="m150.166 182.144v7.052h29.36v-25.545h-21.783c-4.684 4.76-7.577 11.287-7.577 18.493z" fill="url(#SVGID_3_)"/><path d="m29.362 83.78c0 8.226 1.387 16.124 3.905 23.497 6.351-7.834 16.045-12.854 26.892-12.854h15.767v-25.545h-15.767c-11.121 0-21.54 3.045-30.487 8.328-.195 2.167-.31 4.357-.31 6.574z" fill="url(#SVGID_4_)"/><path d="m333.403 156.455h-204.736c-40.137 0-72.675-32.538-72.675-72.675 0-40.137 32.538-72.675 72.675-72.675h204.736c40.137 0 72.675 32.538 72.675 72.675-.001 40.137-32.538 72.675-72.675 72.675z" fill="url(#SVGID_5_)"/><path d="m333.403 11.105h-40.462c40.137 0 72.675 32.538 72.675 72.675 0 40.137-32.538 72.675-72.675 72.675h40.462c40.137 0 72.675-32.538 72.675-72.675-.001-40.137-32.538-72.675-72.675-72.675z" fill="url(#SVGID_6_)"/><path d="m204.404 423.688c-52.146 0-94.571-42.425-94.571-94.571s42.424-94.571 94.571-94.571 94.571 42.425 94.571 94.571-42.424 94.571-94.571 94.571zm0-154.143c-32.848 0-59.571 26.724-59.571 59.571s26.723 59.571 59.571 59.571 59.571-26.724 59.571-59.571-26.723-59.571-59.571-59.571z" fill="url(#SVGID_7_)"/><path d="m420.999 196.958h-312.938c-28.757 0-52.068 23.312-52.068 52.068v21.785c0 20.288-3.571 40.418-10.549 59.468l-43.097 117.648c-9.065 24.747 9.254 50.968 35.61 50.968h63.855c15.914 0 30.136-9.936 35.61-24.879l46.983-128.259c6.268-17.11 22.551-28.487 40.774-28.487h195.821c21.574 0 39.062-17.489 39.062-39.062v-42.188c-.001-21.573-17.49-39.062-39.063-39.062z" fill="url(#SVGID_8_)"/><path d="m150.166 206.644v13.803c0 14.564 11.807 26.371 26.371 26.371h146.683c14.564 0 26.371-11.807 26.371-26.371v-13.803c0-3.421-.659-6.687-1.844-9.686h-195.737c-1.185 3-1.844 6.265-1.844 9.686z" fill="url(#SVGID_9_)"/><path d="m184.716 317.269c-18.222 0-34.506 11.377-40.774 28.487l-46.983 128.26c-5.474 14.943-19.695 24.879-35.609 24.879h40.462c15.914 0 30.136-9.936 35.61-24.879l46.983-128.259c6.268-17.11 22.551-28.487 40.774-28.487h-40.463z" fill="url(#SVGID_10_)"/><path d="m370.355 317.269h40.02l-.578-120.311h-40.02z" fill="url(#SVGID_11_)"/><path d="m449.654 343.109h-17.717c-13.484 0-24.414-10.931-24.414-24.414v-122.097c0-13.484 10.931-24.414 24.414-24.414h17.717c13.484 0 24.414 10.931 24.414 24.414v122.097c0 13.484-10.93 24.414-24.414 24.414z" fill="url(#SVGID_12_)"/><path d="m170.946 195.947v-13.803c0-14.564 11.807-26.371 26.371-26.371h146.683c14.564 0 26.371 11.807 26.371 26.371v13.803c0 14.564-11.807 26.371-26.371 26.371h-146.683c-14.564 0-26.371-11.806-26.371-26.371z" fill="url(#SVGID_13_)"/><path d="m77.34 334.115c-7.853 22.298-25.551 71.19-36.101 100.274-4.07 11.219 4.243 23.065 16.178 23.065h40.088c7.197 0 13.632-4.474 16.132-11.223 8.134-21.957 26.334-71.004 37.432-100.308 4.263-11.256-4.058-23.291-16.094-23.291h-41.409c-7.299 0-13.802 4.599-16.226 11.483z" fill="url(#SVGID_14_)"/><path d="m134.974 322.632h-25.787c12.036 0 20.357 12.035 16.094 23.291-11.098 29.304-29.298 78.351-37.432 100.308-2.5 6.749-8.935 11.223-16.132 11.223h25.787c7.197 0 13.632-4.474 16.132-11.223 8.134-21.957 26.334-71.004 37.432-100.308 4.263-11.256-4.057-23.291-16.094-23.291z" fill="url(#SVGID_15_)"/><g><circle cx="177.409" cy="273.206" fill="url(#SVGID_16_)" r="37.256"/><path d="m214.668 273.206c0 20.572-16.681 37.253-37.263 37.253-12.749 0-24.001-6.405-30.707-16.168 1.518.161 3.067.241 4.625.241 23.93 0 43.336-19.406 43.336-43.336 0-4.102-.573-8.074-1.639-11.824 12.78 5.902 21.648 18.832 21.648 33.834z" fill="url(#SVGID_17_)"/></g><path d="m354.76 338.109c-9.797 0-17.74-7.942-17.74-17.74v-22.012c0-9.797 7.942-17.74 17.74-17.74 9.797 0 17.74 7.942 17.74 17.74v22.012c0 9.797-7.943 17.74-17.74 17.74z" fill="url(#SVGID_18_)"/><path d="m390.162 338.109c-9.797 0-17.74-7.942-17.74-17.74v-22.012c0-9.797 7.942-17.74 17.74-17.74 9.797 0 17.74 7.942 17.74 17.74v22.012c-.001 9.797-7.943 17.74-17.74 17.74z" fill="url(#SVGID_19_)"/></g></svg>